<svg width="24" height="27" fill="none" xmlns="http://www.w3.org/2000/svg"><path d="m15.634 4.195.595.201.001-.016a11.078 11.078 0 0 1 5.585 4.499 10.927 10.927 0 0 1 1.549 7.548 10.98 10.98 0 0 1-3.824 6.707 11.155 11.155 0 0 1-7.326 2.575 11.149 11.149 0 0 1-7.233-2.821 10.974 10.974 0 0 1-3.59-6.832 10.93 10.93 0 0 1 1.807-7.492A11.094 11.094 0 0 1 9.52 4.083l.012-.003a3.416 3.416 0 0 0 2.44-3.246 4.615 4.615 0 0 1 1.448 1.31l.2.287c.464.674.972 1.413 2.014 1.764ZM8.371 21.007a5.74 5.74 0 0 0 4.042 1.661 5.74 5.74 0 0 0 4.042-1.66 5.655 5.655 0 0 0 1.677-4.016 5.655 5.655 0 0 0-1.677-4.015 5.74 5.74 0 0 0-4.042-1.661 5.74 5.74 0 0 0-4.042 1.66 5.655 5.655 0 0 0-1.676 4.016c0 1.507.603 2.951 1.676 4.015Z" fill="#000" stroke="#000"/></svg>